<svg xmlns="http://www.w3.org/2000/svg" width="140.981" height="41.101" viewBox="0 0 140.981 41.101">
    <g fill-rule="evenodd">
        <g>
            <path fill="#505050" d="M227.035 260.494l-4.15-2.4v20.876l-7.294 4.208v-8.423l6.286-3.629V265.2l-10.315 5.955-.038.02h-.033a2.069 2.069 0 0 0-1.035 1.779v11.412a2.071 2.071 0 0 0 .932 1.728l3.7 2.134a2.068 2.068 0 0 0 1.954.022l9.953-5.744a2.066 2.066 0 0 0 1.024-1.774v-18.475a2.077 2.077 0 0 0-.984-1.763z" transform="translate(-804 -42) translate(804 42) translate(-191.868 -250.947)"/>
            <path fill="#909090" d="M144 243.784v4.793l18.075-10.436 7.292 4.213-7.295 4.212-6.286-3.629-5.133 2.964 10.315 5.955.036.023h.023a2.07 2.07 0 0 0 2.059.006l9.883-5.706a2.078 2.078 0 0 0 .756-.757 2.057 2.057 0 0 0 .274-.915v-4.268a2.068 2.068 0 0 0-.958-1.7L163.1 232.8a2.067 2.067 0 0 0-2.048 0l-16.016 9.247a2.078 2.078 0 0 0-1.036 1.737z" transform="translate(-804 -42) translate(804 42) translate(-144.001 -232.533)"/>
            <path fill="#6a6a6a" d="M163.058 310.147l4.151-2.4-18.076-10.436v-8.421l7.295 4.212v7.258l5.133 2.964v-11.988a2.069 2.069 0 0 0-1.024-1.786l-9.883-5.706a2.077 2.077 0 0 0-1.033-.276 2.055 2.055 0 0 0-.929.22l-3.7 2.134a2.07 2.07 0 0 0-1 1.681v11.492a2.067 2.067 0 0 0 1.024 1.774l16.016 9.247a2.078 2.078 0 0 0 2.026.031z" transform="translate(-804 -42) translate(804 42) translate(-144 -269.293)"/>
        </g>
        <path fill="#8a8a8a" d="M303.437 285.7v-14.5h5.445c4.238 0 7.7 2.849 7.7 7.21v.041c0 4.356-3.451 7.251-7.7 7.251zm18.663-11.978v3.4h7.125v2.527H322.1v3.522h8.139v2.529H319.31v-14.5h10.828v2.526zm15.929 12.178a8.906 8.906 0 0 1-6.029-2.31l-.106-.095 1.69-2.009.113.1a6.4 6.4 0 0 0 4.39 1.811c1.034 0 2.37-.391 2.37-1.639v-.041a1.533 1.533 0 0 0-.089-.557c-.348-.894-2.2-1.286-3.005-1.472-2.521-.609-4.842-1.385-4.842-4.385v-.041c0-2.78 2.424-4.267 5-4.267a8.028 8.028 0 0 1 5.247 1.818l.108.086-1.507 2.123-.121-.09a6.358 6.358 0 0 0-3.768-1.432c-.948 0-2.167.409-2.167 1.538v.041a1.514 1.514 0 0 0 .11.614c.384.872 2.335 1.282 3.148 1.476 2.387.581 4.68 1.487 4.68 4.3v.041c0 2.991-2.479 4.393-5.222 4.393zm10.661-7.786l6.549-6.923h3.474l-6.059 6.268 6.273 8.234h-3.394l-4.792-6.316-2.052 2.109v4.214H345.9v-14.5h2.79v6.923zm20.531 2.135l3.879 5.451h-3.3l-3.491-4.953h-2.9v4.953h-2.79v-14.5h6.48a5.94 5.94 0 0 1 4.205 1.464 4.453 4.453 0 0 1 1.219 3.168v.041a4.372 4.372 0 0 1-3.3 4.384zm8.86-6.531v3.4h7.125v2.527h-7.125v3.522h8.139v2.533h-10.93v-14.5h10.828v2.526zm13.6 0v3.4h7.119v2.527h-7.12v3.522h8.139v2.533H388.89v-14.5h10.828v2.526zm-85.453 9.409h2.654a4.486 4.486 0 0 0 4.786-4.643v-.041a4.517 4.517 0 0 0-4.786-4.684h-2.654v9.368zm57.178-4.892h3.507c1.412 0 2.776-.655 2.776-2.228v-.04c0-1.65-1.326-2.208-2.8-2.208h-3.486z" transform="translate(-804 -42) translate(545.161 -215.846)"/>
    </g>
</svg>
